# Blender v2.75 (sub 0) OBJ File: 'Jump Small Ledge.blend'
# www.blender.org
mtllib Jump Small Ledge.mtl
o Cube.003_Cube.005
v -0.129386 0.741510 0.467201
v -1.000000 0.876711 1.000000
v -1.000000 0.876711 0.467201
v -1.000000 0.876711 -1.000000
v -0.003874 0.018993 1.000000
v -0.129386 0.741510 1.000000
v -0.003874 0.018993 -1.000000
v -0.129386 0.741510 -1.000000
v -0.003874 0.018993 0.467201
v -1.000000 0.876711 -0.442464
v -0.129386 0.741510 -0.442464
v -0.003874 0.018993 -0.442464
v -0.129386 0.806312 0.012369
v -1.000000 0.876711 0.012369
v -0.003874 0.018993 0.012369
v -0.003874 0.018993 0.752550
v -1.000000 0.876711 0.752550
v -0.129386 0.790191 0.752550
v -1.000000 0.876711 -0.721232
v -0.003874 0.018993 -0.721232
v -0.129386 0.790842 -0.721232
v -0.506334 0.876711 0.467201
v -0.506334 0.876711 -1.000000
v -0.506334 0.876711 1.000000
v -0.506334 0.876711 -0.442464
v -0.506334 0.876711 0.012369
v -0.506334 0.876711 0.752550
v -0.506334 0.876711 -0.721232
v -0.003874 0.447852 -1.000000
v -0.003874 0.447852 1.000000
v 0.078548 0.447852 0.467201
v 0.083261 0.447852 -0.442464
v -0.003874 0.447852 0.012369
v -0.003874 0.447852 0.752550
v -0.003874 0.447852 -0.721232
vt 0.716973 0.303743
vt 0.541567 0.278753
vt 0.716973 0.165503
vt 0.431522 0.297526
vt 0.336093 0.278753
vt 0.431522 0.165503
vt 0.999886 0.297777
vt 0.892379 0.278753
vt 0.999886 0.165503
vt 0.892379 0.165503
vt 0.541567 0.165503
vt 0.447396 0.442732
vt 0.447611 0.329483
vt 0.554537 0.442732
vt 0.145483 0.675985
vt 0.000114 0.675985
vt 0.145483 0.565940
vt 0.145483 0.390534
vt 0.000114 0.390534
vt 0.145483 0.215128
vt 0.145483 0.107621
vt 0.000114 0.107621
vt 0.145484 0.000114
vt 0.000114 0.565940
vt 0.000114 0.771414
vt 0.145483 0.771414
vt 0.000114 0.215128
vt 0.447414 0.609275
vt 0.335866 0.215128
vt 0.335866 0.771414
vt 0.541567 0.000114
vt 0.892379 0.000114
vt 0.335866 0.565940
vt 0.335866 0.107621
vt 0.335866 0.390534
vt 0.999886 0.000114
vt 0.336093 0.165503
vt 0.431522 0.000114
vt 0.335866 0.675985
vt 0.716973 0.000114
vt 0.554537 0.310458
vt 0.000114 0.000114
vt 0.554536 0.609099
vt 0.335866 0.000114
vt 0.336093 0.000114
vn 0.657600 0.753300 0.000000
vn 0.676200 0.736600 -0.005100
vn 0.982500 0.185900 0.002100
vn 0.663500 0.748100 0.008800
vn 0.719100 0.684900 0.117500
vn 0.977400 0.195000 0.081300
vn 0.663700 0.747900 0.000000
vn 0.675000 0.737800 0.006600
vn 0.976800 0.195000 -0.088400
vn 0.978500 0.199500 -0.052800
vn 0.978500 0.200500 0.047500
vn 0.979700 0.200600 0.000000
vn 0.716800 0.689300 -0.105000
vn 0.112600 0.993600 0.000000
vn 0.136200 0.990700 0.002400
vn 0.092200 0.995700 0.000000
vn 0.135800 0.990700 -0.002000
vn 0.111700 0.993700 0.000000
vn 0.135400 0.990200 -0.033500
vn 0.133800 0.990400 0.033900
vn 1.000000 0.000000 0.000000
vn 0.000000 1.000000 0.000000
vn 0.996400 -0.084800 0.006900
vn 0.996000 -0.088900 -0.007600
usemtl Material
s 1
f 13/1/1 1/2/2 33/3/3
f 18/4/4 6/5/5 34/6/6
f 21/7/7 11/8/8 35/9/9
f 32/10/10 11/8/8 33/3/3
f 31/11/11 1/2/2 34/6/6
f 29/12/12 8/13/13 35/14/9
f 27/15/14 18/16/4 22/17/15
f 26/18/16 13/19/1 25/20/17
f 28/21/18 21/22/7 23/23/19
f 1/24/2 13/19/1 22/17/15
f 6/25/5 18/16/4 24/26/20
f 11/27/8 21/22/7 25/20/17
f 29/12/12 35/14/9 7/28/21
f 25/20/17 28/21/18 10/29/22
f 24/26/20 27/15/14 2/30/22
f 31/11/11 34/6/6 9/31/23
f 32/10/10 33/3/3 12/32/24
f 22/17/15 26/18/16 3/33/22
f 28/21/18 23/23/19 19/34/22
f 26/18/16 25/20/17 14/35/22
f 20/36/21 35/9/9 12/32/24
f 34/6/6 30/37/12 16/38/21
f 27/15/14 22/17/15 17/39/22
f 15/40/21 33/3/3 9/31/23
f 1/2/2 31/11/11 33/3/3
f 6/5/5 30/37/12 34/6/6
f 11/8/8 32/10/10 35/9/9
f 11/8/8 13/1/1 33/3/3
f 1/2/2 18/4/4 34/6/6
f 8/13/13 21/41/7 35/14/9
f 18/16/4 1/24/2 22/17/15
f 13/19/1 11/27/8 25/20/17
f 21/22/7 8/42/13 23/23/19
f 13/19/1 26/18/16 22/17/15
f 18/16/4 27/15/14 24/26/20
f 21/22/7 28/21/18 25/20/17
f 35/14/9 20/43/21 7/28/21
f 28/21/18 19/34/22 10/29/22
f 27/15/14 17/39/22 2/30/22
f 34/6/6 16/38/21 9/31/23
f 33/3/3 15/40/21 12/32/24
f 26/18/16 14/35/22 3/33/22
f 23/23/19 4/44/22 19/34/22
f 25/20/17 10/29/22 14/35/22
f 35/9/9 32/10/10 12/32/24
f 30/37/12 5/45/21 16/38/21
f 22/17/15 3/33/22 17/39/22
f 33/3/3 31/11/11 9/31/23
