# Blender v2.75 (sub 0) OBJ File: 'Jump Small Ledge.blend'
# www.blender.org
mtllib Jump Small Ledge.mtl
o Cube.003_Cube.005
v -0.129386 0.741510 0.467201
v -1.000000 0.876711 1.000000
v -1.000000 0.876711 0.467201
v -1.000000 0.876711 -1.000000
v -0.003874 0.018993 1.000000
v -0.129386 0.741510 1.000000
v -0.003874 0.018993 -1.000000
v -0.129386 0.741510 -1.000000
v -0.003874 0.018993 0.467201
v -1.000000 0.876711 -0.442464
v -0.129386 0.741510 -0.442464
v -0.003874 0.018993 -0.442464
v -0.129386 0.806312 0.012369
v -1.000000 0.876711 0.012369
v -0.003874 0.018993 0.012369
v -0.003874 0.018993 0.752550
v -1.000000 0.876711 0.752550
v -0.129386 0.790191 0.752550
v -1.000000 0.876711 -0.721232
v -0.003874 0.018993 -0.721232
v -0.129386 0.790842 -0.721232
v -0.506334 0.876711 0.467201
v -0.506334 0.876711 -1.000000
v -0.506334 0.876711 1.000000
v -0.506334 0.876711 -0.442464
v -0.506334 0.876711 0.012369
v -0.506334 0.876711 0.752550
v -0.506334 0.876711 -0.721232
v -0.003874 0.447852 -1.000000
v -0.003874 0.447852 1.000000
v 0.078548 0.447852 0.467201
v 0.083261 0.447852 -0.442464
v -0.003874 0.447852 0.012369
v -0.003874 0.447852 0.752550
v -0.003874 0.447852 -0.721232
vt 0.716973 0.165503
vt 0.541567 0.165503
vt 0.541567 0.000114
vt 0.145483 0.565940
vt 0.335866 0.565940
vt 0.335866 0.675985
vt 0.336093 0.165503
vt 0.336093 0.000114
vt 0.431522 0.000114
vt 0.999886 0.165503
vt 0.892379 0.165503
vt 0.892379 0.000114
vt 0.145483 0.215128
vt 0.335866 0.215128
vt 0.335866 0.390534
vt 0.145484 0.000114
vt 0.335866 0.000114
vt 0.335866 0.107621
vt 0.145483 0.390534
vt 0.716973 0.000114
vt 0.431522 0.165503
vt 0.145483 0.675985
vt 0.335866 0.771414
vt 0.145483 0.107621
vt 0.554537 0.442732
vt 0.554536 0.609099
vt 0.447414 0.609275
vt 0.000114 0.107621
vt 0.000114 0.675985
vt 0.145483 0.771414
vt 0.000114 0.390534
vt 0.000114 0.000114
vt 0.000114 0.215128
vt 0.000114 0.565940
vt 0.447611 0.329483
vt 0.554537 0.310458
vt 0.541567 0.278753
vt 0.431522 0.297526
vt 0.892379 0.278753
vt 0.716973 0.303743
vt 0.336093 0.278753
vt 0.999886 0.000114
vt 0.447396 0.442732
vt 0.000114 0.771414
vt 0.999886 0.297777
vn 0.982500 0.185900 0.002100
vn 0.978500 0.200500 0.047500
vn 0.996400 -0.084800 0.006900
vn 0.136200 0.990700 0.002400
vn 0.000000 1.000000 0.000000
vn 0.979700 0.200600 0.000000
vn 1.000000 0.000000 0.000000
vn 0.976800 0.195000 -0.088400
vn 0.978500 0.199500 -0.052800
vn 0.996000 -0.088900 -0.007600
vn 0.135800 0.990700 -0.002000
vn 0.135400 0.990200 -0.033500
vn 0.092200 0.995700 0.000000
vn 0.977400 0.195000 0.081300
vn 0.112600 0.993600 0.000000
vn 0.111700 0.993700 0.000000
vn 0.663700 0.747900 0.000000
vn 0.663500 0.748100 0.008800
vn 0.133800 0.990400 0.033900
vn 0.657600 0.753300 0.000000
vn 0.716800 0.689300 -0.105000
vn 0.675000 0.737800 0.006600
vn 0.676200 0.736600 -0.005100
vn 0.719100 0.684900 0.117500
usemtl Material
s 1
f 33/1/1 31/2/2 9/3/3
f 22/4/4 3/5/5 17/6/5
f 30/7/6 5/8/7 16/9/7
f 35/10/8 32/11/9 12/12/10
f 25/13/11 10/14/5 14/15/5
f 23/16/12 4/17/5 19/18/5
f 26/19/13 14/15/5 3/5/5
f 33/1/1 15/20/7 12/12/10
f 34/21/14 16/9/7 9/3/3
f 27/22/15 17/6/5 2/23/5
f 28/24/16 19/18/5 10/14/5
f 35/25/8 20/26/7 7/27/7
f 21/28/17 28/24/16 25/13/11
f 18/29/18 27/22/15 24/30/19
f 13/31/20 26/19/13 22/4/4
f 21/28/17 8/32/21 23/16/12
f 13/31/20 11/33/22 25/13/11
f 18/29/18 1/34/23 22/4/4
f 8/35/21 21/36/17 35/25/8
f 1/37/23 18/38/18 34/21/14
f 11/39/22 13/40/20 33/1/1
f 11/39/22 32/11/9 35/10/8
f 6/41/24 30/7/6 34/21/14
f 1/37/23 31/2/2 33/1/1
f 15/20/7 33/1/1 9/3/3
f 27/22/15 22/4/4 17/6/5
f 34/21/14 30/7/6 16/9/7
f 20/42/7 35/10/8 12/12/10
f 26/19/13 25/13/11 14/15/5
f 28/24/16 23/16/12 19/18/5
f 22/4/4 26/19/13 3/5/5
f 32/11/9 33/1/1 12/12/10
f 31/2/2 34/21/14 9/3/3
f 24/30/19 27/22/15 2/23/5
f 25/13/11 28/24/16 10/14/5
f 29/43/6 35/25/8 7/27/7
f 11/33/22 21/28/17 25/13/11
f 6/44/24 18/29/18 24/30/19
f 1/34/23 13/31/20 22/4/4
f 28/24/16 21/28/17 23/16/12
f 26/19/13 13/31/20 25/13/11
f 27/22/15 18/29/18 22/4/4
f 29/43/6 8/35/21 35/25/8
f 31/2/2 1/37/23 34/21/14
f 32/11/9 11/39/22 33/1/1
f 21/45/17 11/39/22 35/10/8
f 18/38/18 6/41/24 34/21/14
f 13/40/20 1/37/23 33/1/1
