# Blender v2.76 (sub 0) OBJ File: 'Small Jump Ledge Corner.blend'
# www.blender.org
mtllib Jump Small Ledge corner.mtl
o Cube_Cube.001
v -1.450017 0.818515 2.885993
v -2.000340 0.989679 2.002817
v -1.444713 0.996289 2.001649
v -1.001217 1.000747 1.006176
v -1.998475 -0.031159 2.992733
v -2.005645 0.811905 2.881869
v -0.004040 0.003183 1.006176
v -0.134942 0.843502 1.006176
v -1.442848 -0.024549 2.996857
v -1.001217 1.000747 1.563713
v -0.134942 0.843502 1.563713
v -0.004040 0.003183 1.563713
v -0.134942 0.918870 2.011626
v -1.001217 1.000747 1.998925
v -0.004040 0.003183 2.011626
v -1.740423 -0.028089 2.994648
v -1.742289 0.992749 2.003674
v -1.748142 0.871579 2.884769
v -1.001217 1.000747 1.284945
v -0.004040 0.003183 1.284945
v -0.134942 0.900878 1.284945
v -1.448586 0.984625 2.511870
v -0.528074 1.000747 1.006176
v -2.004213 0.978015 2.507746
v -0.528074 1.000747 1.563713
v -0.528074 1.000747 2.011626
v -1.746161 0.981085 2.509661
v -0.528074 1.000747 1.284945
v -0.004040 0.501965 1.006176
v -2.003315 0.467492 3.001410
v -1.448334 0.472154 3.087937
v 0.086836 0.501965 1.563713
v -0.004040 0.501965 2.011626
v -1.745263 0.470562 3.003326
v -0.004040 0.501965 1.284945
v -1.072235 0.883121 2.889847
v -1.066348 1.000790 2.001282
v -1.064482 -0.020048 2.999665
v -1.070220 0.989126 2.514678
v -1.069453 0.478209 3.025012
v -0.576008 -0.012595 2.682679
v -0.565261 0.485830 2.748143
v -0.688741 0.894590 2.608093
v -0.896287 0.992854 2.353287
v -0.215894 -0.004706 2.347153
v -0.226328 0.493898 2.440442
v -0.397050 0.844937 2.309860
v -0.712180 0.996801 2.182457
vt 0.824093 0.231786
vt 0.825072 0.130563
vt 0.977126 0.148101
vt 0.209219 0.142307
vt 0.210252 0.299049
vt 0.109583 0.298956
vt 0.826851 0.019108
vt 0.978747 0.019519
vt 0.977994 0.079237
vt 0.143939 0.891699
vt 0.142353 0.802433
vt 0.295946 0.803365
vt 0.520502 0.445399
vt 0.346180 0.444190
vt 0.346180 0.302233
vt 0.520502 0.622098
vt 0.346180 0.620889
vt 0.346180 0.532540
vt 0.145051 0.660314
vt 0.296631 0.660744
vt 0.826097 0.078826
vt 0.021252 0.142132
vt 0.108551 0.142214
vt 0.520502 0.533749
vt 0.295519 0.892129
vt 0.295093 0.980892
vt 0.655992 0.531996
vt 0.110493 0.020392
vt 0.568582 0.205057
vt 0.655562 0.302172
vt 0.520502 0.303442
vt 0.657361 0.618809
vt 0.657361 0.442109
vt 0.212698 0.019283
vt 0.042618 0.980892
vt 0.025608 0.892079
vt 0.721457 0.173489
vt 0.705083 0.104578
vt 0.043471 0.803365
vt 0.021252 0.660679
vt 0.723079 0.044907
vt 0.702044 0.261000
vt 0.824678 0.406250
vt 0.339066 0.020679
vt 0.337219 0.142426
vt 0.338252 0.299168
vt 0.976022 0.235662
vt 0.825280 0.548578
vt 0.977010 0.414725
vt 0.719461 0.537468
vt 0.701409 0.408381
vt 0.468636 0.111183
vt 0.396021 0.194084
vt 0.458261 0.248763
vt 0.826893 0.688678
vt 0.977936 0.567714
vt 0.022285 0.298874
vt 0.143513 0.980462
vt 0.024731 0.019108
vt 0.421115 0.747334
vt 0.339136 0.747334
vt 0.381452 0.660314
vt 0.699866 0.660285
vt 0.978748 0.686175
vn 0.164000 -0.176200 0.970600
vn -0.011700 0.999700 0.022800
vn -0.007200 -0.017500 0.999800
vn 0.936800 -0.170700 -0.305400
vn 0.000000 1.000000 0.000000
vn 1.000000 0.000000 0.000000
vn -0.012100 0.999700 0.023000
vn 0.246200 0.969200 0.000000
vn -0.013500 0.959900 0.280100
vn 0.187900 0.902000 0.388700
vn 0.364800 0.912000 -0.187700
vn 0.366900 0.917400 -0.154400
vn 0.158900 0.902100 0.401100
vn 0.948200 0.311100 -0.064000
vn 0.046500 0.283500 0.957800
vn 0.952900 0.299200 -0.050300
vn 0.809000 0.525300 -0.263700
vn -0.010900 0.327800 0.944700
vn 0.134100 0.499600 0.855800
vn 0.458200 0.284300 0.842200
vn -0.013500 0.962300 0.271800
vn -0.012100 0.999700 0.022600
vn 0.481400 -0.039700 0.875600
vn 0.669500 -0.110900 0.734500
vn 0.684600 0.412700 0.600900
vn 0.183600 0.958100 0.220000
vn -0.000600 0.999700 0.022400
vn 0.755900 0.517000 0.401600
vn 0.886300 -0.067200 0.458200
vn 0.358900 0.911900 0.199200
vn -0.006800 -0.050900 0.998700
vn 0.964800 -0.175800 0.195700
vn -0.268900 -0.176600 0.946900
vn -0.012000 0.999700 0.023000
vn 0.364800 0.912000 0.187700
vn -0.211500 0.893600 0.395900
vn 0.294300 0.894000 0.337800
vn 0.203900 0.979000 0.000000
vn 0.933800 0.357900 0.000000
vn -0.241600 0.487900 0.838800
vn 0.826800 0.536900 0.167700
vn 0.948200 0.311100 0.064000
vn -0.076200 0.282200 0.956300
vn -0.063600 0.315600 0.946800
vn 0.531000 0.413800 0.739500
vn -0.158400 0.902600 0.400200
vn -0.011900 0.999700 0.022800
vn 0.541700 -0.120900 0.831900
vn 0.678100 -0.121400 0.724900
vn 0.569300 0.515200 0.640600
vn 0.169200 0.948200 0.268800
vn -0.000400 0.999700 0.022700
vn 0.001400 0.999800 0.021800
vn 0.704700 0.221300 0.674200
vn 0.845600 0.000000 0.533900
usemtl Material.001
s off
f 40/1/1 31/2/1 9/3/1
f 22/4/2 3/5/2 17/6/2
f 30/7/3 5/8/3 16/9/3
f 35/10/4 32/11/4 12/12/4
f 25/13/5 10/14/5 14/15/5
f 23/16/5 4/17/5 19/18/5
f 33/19/6 15/20/6 12/12/6
f 34/21/3 16/9/3 9/3/3
f 24/22/7 27/23/7 17/6/7
f 28/24/5 19/18/5 10/14/5
f 35/10/6 20/25/6 7/26/6
f 21/27/8 28/24/8 25/13/8
f 18/28/9 27/23/9 24/22/9
f 47/29/10 13/30/10 26/31/10
f 21/27/11 8/32/11 23/16/11
f 13/30/12 11/33/12 25/13/12
f 18/28/13 1/34/13 22/4/13
f 8/35/14 21/36/14 35/10/14
f 1/37/15 18/38/15 34/21/15
f 11/39/16 13/40/16 33/19/16
f 11/39/17 32/11/17 35/10/17
f 6/41/18 30/7/18 34/21/18
f 1/37/19 31/2/19 40/1/19
f 36/42/20 40/1/20 42/43/20
f 36/44/21 39/45/21 22/4/21
f 22/4/22 39/45/22 37/46/22
f 42/43/23 40/1/23 38/47/23
f 46/48/24 42/43/24 41/49/24
f 47/50/25 43/51/25 42/43/25
f 43/52/26 44/53/26 39/45/26
f 48/54/27 14/15/27 44/53/27
f 47/50/28 46/48/28 33/55/28
f 33/55/29 46/48/29 45/56/29
f 43/52/30 47/29/30 48/54/30
f 38/47/31 40/1/31 9/3/31
f 27/23/7 22/4/7 17/6/7
f 34/21/3 30/7/3 16/9/3
f 20/25/6 35/10/6 12/12/6
f 26/31/5 25/13/5 14/15/5
f 28/24/5 23/16/5 19/18/5
f 32/11/32 33/19/32 12/12/32
f 31/2/33 34/21/33 9/3/33
f 2/57/34 24/22/34 17/6/34
f 25/13/5 28/24/5 10/14/5
f 29/58/6 35/10/6 7/26/6
f 11/33/35 21/27/35 25/13/35
f 6/59/36 18/28/36 24/22/36
f 48/54/37 47/29/37 26/31/37
f 28/24/8 21/27/8 23/16/8
f 26/31/38 13/30/38 25/13/38
f 27/23/9 18/28/9 22/4/9
f 29/58/39 8/35/39 35/10/39
f 31/60/40 1/61/40 34/62/40
f 32/11/41 11/39/41 33/19/41
f 21/36/42 11/39/42 35/10/42
f 18/38/43 6/41/43 34/21/43
f 36/42/44 1/37/44 40/1/44
f 43/51/45 36/42/45 42/43/45
f 1/34/46 36/44/46 22/4/46
f 3/5/47 22/4/47 37/46/47
f 41/49/48 42/43/48 38/47/48
f 45/56/49 46/48/49 41/49/49
f 46/48/50 47/50/50 42/43/50
f 36/44/51 43/52/51 39/45/51
f 39/45/52 44/53/52 37/46/52
f 48/54/27 26/31/27 14/15/27
f 14/15/53 37/46/53 44/53/53
f 13/63/54 47/50/54 33/55/54
f 15/64/55 33/55/55 45/56/55
f 44/53/26 43/52/26 48/54/26
